<svg width="15" height="12" viewBox="0 0 15 12" fill="none" xmlns="http://www.w3.org/2000/svg">
<path d="M14.25 0.750055C14.1861 0.743471 14.1217 0.743471 14.0578 0.750055H0.932764C0.848644 0.751351 0.765081 0.763964 0.684326 0.787555L7.45776 7.53287L14.25 0.750055Z" fill="#0D1823"/>
<path d="M14.9438 1.40137L8.11875 8.19824C7.9431 8.37285 7.70549 8.47086 7.45781 8.47086C7.21014 8.47086 6.97253 8.37285 6.79688 8.19824L0.0328125 1.45293C0.0120185 1.52936 0.000993134 1.60811 0 1.6873V11.0623C0 11.3109 0.0987721 11.5494 0.274587 11.7252C0.450403 11.901 0.68886 11.9998 0.9375 11.9998H14.0625C14.3111 11.9998 14.5496 11.901 14.7254 11.7252C14.9012 11.5494 15 11.3109 15 11.0623V1.6873C14.9963 1.58964 14.9773 1.49317 14.9438 1.40137ZM1.57969 11.0623H0.928125V10.392L4.33594 7.0123L4.99687 7.67324L1.57969 11.0623ZM14.0531 11.0623H13.3969L9.97969 7.67324L10.6406 7.0123L14.0484 10.392L14.0531 11.0623Z" fill="#0D1823"/>
</svg>
