<svg width="729" height="1144" viewBox="0 0 729 1144" fill="none" xmlns="http://www.w3.org/2000/svg">
<path d="M342.119 1.5061L341.836 13.0549C276.861 11.4598 212.096 21.0667 150.382 41.4544L164.876 85.3311C172.954 82.6628 181.095 80.1931 189.293 77.9244L183.131 55.6568C200.259 50.9169 217.609 47.0207 235.12 43.9824L239.069 66.7468C247.451 65.2925 255.866 64.0441 264.309 63.0028L261.481 40.0721C270.298 38.9846 279.141 38.1136 288.002 37.46L296.5 152.669C303.476 152.155 310.462 151.812 317.454 151.64L318.021 174.737C284.911 175.55 252.025 180.428 220.105 189.262L213.942 166.995C207.202 168.86 200.507 170.891 193.866 173.085L201.114 195.023C194.832 197.098 188.601 199.328 182.428 201.709L190.744 223.265C216.959 213.152 244.213 205.969 272.007 201.846L278.787 247.555C267.94 249.164 257.179 251.305 246.542 253.969L252.156 276.381C232.338 281.345 213.055 288.245 194.585 296.98L224.221 359.639C231.399 356.244 238.739 353.203 246.216 350.528L253.999 372.282C240.463 377.126 227.434 383.288 215.102 390.679L191.346 351.044C176.418 359.992 162.406 370.384 149.51 382.072L165.026 399.191C170.91 393.859 177.051 388.818 183.429 384.088L197.193 402.646C185.645 411.21 174.966 420.889 165.311 431.542L182.43 447.058C180.272 449.439 178.173 451.873 176.134 454.357L193.994 469.014C186.793 477.788 180.472 487.248 175.122 497.259L154.745 486.367C142.588 509.112 135.03 534.029 132.502 559.695L155.495 561.959C154.382 573.255 154.382 584.633 155.495 595.929L178.488 593.664C180.909 618.242 189.354 641.844 203.075 662.379C216.796 682.914 235.369 699.748 257.15 711.39L246.259 731.766C256.269 737.117 266.781 741.471 277.643 744.766L270.936 766.876C261.706 764.076 252.696 760.6 243.977 756.477L234.099 777.363C227.604 774.291 221.265 770.902 215.102 767.209L203.224 787.026C196.414 782.944 189.807 778.53 183.429 773.8L169.666 792.357C183.645 802.725 198.609 811.694 214.342 819.135L224.221 798.249C238.586 805.043 253.583 810.41 268.998 814.271L263.384 836.683C254.948 834.57 246.62 832.043 238.432 829.114L230.648 850.868C194.939 838.09 162.096 818.405 133.994 792.935L118.478 810.054C110.913 803.198 103.69 795.975 96.8338 788.41L79.7145 803.926C64.9776 787.667 51.8739 769.998 40.5923 751.176L0.95752 774.932C8.97716 788.312 17.8105 801.187 27.4077 813.485L9.19333 827.7C21.4096 843.353 34.7624 858.086 49.1434 871.778L33.2119 888.511C53.4893 907.817 75.6145 925.083 99.2686 940.062L111.629 920.542C100.448 913.462 89.6218 905.837 79.1886 897.695L93.4032 879.48C113.089 894.843 134.237 908.235 156.542 919.462L146.154 940.1C169.81 952.008 194.58 961.562 220.105 968.626L195.456 1057.7C203.29 1059.86 211.176 1061.84 219.106 1063.62L214.044 1086.16C205.744 1084.3 197.492 1082.23 189.293 1079.96L183.131 1102.23C166.003 1097.49 149.118 1091.91 132.537 1085.52L124.222 1107.07C150.158 1117.08 176.796 1125.16 203.92 1131.25L208.982 1108.71C217.651 1110.65 226.366 1112.39 235.12 1113.91L239.069 1091.14C255.834 1094.05 272.732 1096.13 289.702 1097.39L294.801 1028.26C302.153 1028.8 309.517 1029.16 316.887 1029.35L315.753 1075.54C332.008 1075.94 348.272 1075.54 364.487 1074.34L366.187 1097.39C349.217 1098.64 332.197 1099.06 315.186 1098.64L314.619 1121.74C332.386 1122.17 350.163 1121.74 367.886 1120.43L369.586 1143.47C434.405 1138.69 497.916 1122.78 557.335 1096.44L538.609 1054.2C530.833 1057.64 522.972 1060.9 515.036 1063.96L506.721 1042.4C521.89 1036.55 536.764 1029.96 551.287 1022.65L572.063 1063.92C579.999 1059.93 587.836 1055.74 595.566 1051.36L584.178 1031.26C591.579 1027.07 598.876 1022.69 606.063 1018.14L593.702 998.622C641.89 968.108 684.462 929.522 719.552 884.558L664.909 841.914C669.212 836.4 673.38 830.782 677.407 825.063L715.187 851.671C719.649 845.334 723.956 838.889 728.102 832.341L650.023 782.898C631.64 811.927 609.418 838.338 583.959 861.412L568.443 844.293C533.596 875.876 492.871 900.286 448.591 916.129L440.807 894.375C461.469 886.982 481.354 877.577 500.176 866.296L488.298 846.479C479.541 851.727 470.532 856.543 461.303 860.908L441.546 819.135C457.279 811.694 472.243 802.725 486.222 792.357L472.459 773.8C478.837 769.07 484.979 764.029 490.862 758.697L506.378 775.816C512.822 769.975 518.976 763.822 524.816 757.378L507.697 741.862C513.029 735.979 518.07 729.837 522.8 723.459L578.473 764.749C572.391 772.949 565.911 780.846 559.055 788.41L541.935 772.894C535.587 779.898 528.899 786.587 521.894 792.935L552.927 827.174C577.341 805.046 598.357 779.438 615.296 751.176L595.479 739.298C600.727 730.541 605.543 721.532 609.908 712.303L630.794 722.181C635.482 712.269 639.681 702.132 643.376 691.807L621.622 684.023C638.902 635.728 644.005 583.916 636.479 533.177L613.624 536.567C608.059 499.051 595.159 462.999 575.661 430.468L555.844 442.346C546.897 427.418 536.504 413.405 524.816 400.51L559.055 369.478C565.911 377.042 572.391 384.939 578.473 393.139L615.588 365.613C608.606 356.198 601.165 347.131 593.293 338.446L576.174 353.962C568.81 345.837 561.051 338.078 552.927 330.714L506.378 382.072C499.934 376.232 493.208 370.711 486.222 365.531L472.459 384.088C485.223 393.554 497.025 404.252 507.697 416.026L473.458 447.058C484.262 458.978 493.56 472.18 501.143 486.367L480.767 497.259C486.117 507.269 490.471 517.781 493.766 528.642L449.547 542.056C442.251 518.005 427.988 496.658 408.559 480.714L393.902 498.574C382.018 488.821 368.12 481.825 353.207 478.09C338.294 474.354 322.739 473.972 307.661 476.972L316.676 522.293C304.522 524.71 293.468 530.972 285.146 540.154C276.824 549.336 271.676 560.95 270.461 573.282C269.246 585.615 272.03 598.01 278.401 608.639C284.771 619.268 294.391 627.566 305.84 632.308L310.261 621.636" stroke="#0D1823" stroke-linecap="square" stroke-linejoin="round"/>
</svg>
